<svg width="28" height="28" viewBox="0 0 28 28" fill="none" xmlns="http://www.w3.org/2000/svg">
<path d="M18.6654 9.33203L9.33203 12.832" stroke="black" stroke-width="1.75" stroke-linecap="round"/>
<path d="M18.6654 18.668L9.33203 15.168" stroke="black" stroke-width="1.75" stroke-linecap="round"/>
<path fill-rule="evenodd" clip-rule="evenodd" d="M7.0013 16.3346C8.28997 16.3346 9.33464 15.29 9.33464 14.0013C9.33464 12.7126 8.28997 11.668 7.0013 11.668C5.71264 11.668 4.66797 12.7126 4.66797 14.0013C4.66797 15.29 5.71264 16.3346 7.0013 16.3346Z" stroke="black" stroke-width="1.75"/>
<path fill-rule="evenodd" clip-rule="evenodd" d="M21.0013 10.4987C22.29 10.4987 23.3346 9.45403 23.3346 8.16536C23.3346 6.8767 22.29 5.83203 21.0013 5.83203C19.7126 5.83203 18.668 6.8767 18.668 8.16536C18.668 9.45403 19.7126 10.4987 21.0013 10.4987Z" stroke="black" stroke-width="1.75"/>
<path fill-rule="evenodd" clip-rule="evenodd" d="M21.0013 22.1667C22.29 22.1667 23.3346 21.122 23.3346 19.8333C23.3346 18.5447 22.29 17.5 21.0013 17.5C19.7126 17.5 18.668 18.5447 18.668 19.8333C18.668 21.122 19.7126 22.1667 21.0013 22.1667Z" stroke="black" stroke-width="1.75"/>
</svg>
